<?xml version="1.0" encoding="utf-8"?>
<!-- Generator: Adobe Illustrator 19.0.0, SVG Export Plug-In . SVG Version: 6.00 Build 0)  -->
<svg version="1.1" id="layer" xmlns="http://www.w3.org/2000/svg" xmlns:xlink="http://www.w3.org/1999/xlink" x="0px" y="0px"
	 viewBox="-153 -46 652 652" style="enable-background:new -153 -46 652 652;" xml:space="preserve">
<path d="M344.7,330.8l46.3-47.9l46.6,47.9v16h-92.8V330.8z M332.7,221.9l36.9,38.6h-56.2v17.6h55.9l-43.3,44.6v42.9h129.1v-42.9
	l-43.3-44.6h56.2v-17.6h-56.2l36.3-37.9l-13-13.3l-44.9,46.6l-44.6-47.6L332.7,221.9L332.7,221.9z"/>
<path d="M409.2,203.3c0,10.6-8.3,19-18.3,19c-10,0-18.3-8.7-18.3-19c0-10.6,8.3-19,18.3-19C401.3,184.3,409.2,193,409.2,203.3
	 M239.5,351.4c12,0,16.3-11.6,16.3-24.3c0-13.6-4-24.3-16.3-24.3c-12,0-17,11-17,24.3C222.6,339.4,227.6,351.4,239.5,351.4
	 M239.5,287.2c24.3,0,37.3,14.3,37.3,39.6c0,24.3-13,39.6-37.3,39.6c-24.3,0-37.3-15.3-37.3-39.6
	C202.6,301.5,215.2,287.2,239.5,287.2 M167,287.2c7.3,0,14.6,1.7,21.6,3.3l-1.7,17c-6.3-3.3-13-5-19.3-5c-13.6,0-23.3,10-23.3,24.3
	c0,15.3,10.6,24.3,25,24.3c6.3,0,13-1.7,18.6-4.3l0.7,16c-5.7,1.7-12,3.3-21.6,3.3c-20.3,0-42.9-10-42.9-39.6
	C124.1,299.8,142.7,287.2,167,287.2"/>
<path d="M56.2,288.2v77.5h52.6v-15.3H74.8v-16.6h30.6v-15.3H74.8v-16h33.3v-14.3H56.2z M21.6,288.2l-9.7,58.9L1.3,288.2h-25
	l-9.7,58.9H-34l-9-58.9h-20.3l16.3,77.5h25.6l10-59.9l10.3,59.9h25l17-77.5H21.6z"/>
<path d="M-99.6,287.2c7.3,0,13.6,0.7,19.3,2.7l-1.7,16c-5-2.7-10.6-3.3-16-3.3c-5,0-13.6,0-13.6,6.7c0,12.6,35.6,4.3,35.6,31.9
	c0,20.3-16.3,25.3-33.3,25.3c-6.3,0-15.3-1-21.6-3.3l1.7-17c5.7,2.7,12,5,20.3,5c6.3,0,12-1.7,12-7.7c-0.3-14-34.9-4.7-34.9-32.6
	C-131.9,292.5-114.2,287.2-99.6,287.2"/>
</svg>
